<svg xmlns="http://www.w3.org/2000/svg" xmlns:xlink="http://www.w3.org/1999/xlink" width="250" zoomAndPan="magnify" viewBox="0 0 187.5 74.999997" height="100" preserveAspectRatio="xMidYMid meet" version="1.0"><defs><g/><clipPath id="16c900b1f1"><path d="M 3.335938 11.367188 L 55.316406 11.367188 L 55.316406 63.347656 L 3.335938 63.347656 Z M 3.335938 11.367188 " clip-rule="nonzero"/></clipPath></defs><g clip-path="url(#16c900b1f1)"><path fill="#5271ff" d="M 52.75 21.785156 L 55.539062 11.367188 L 45.121094 14.15625 L 47.464844 16.5 L 9.300781 54.664062 C 9.300781 54.664062 9.539062 54.945312 10.742188 56.167969 C 11.945312 57.390625 12.242188 57.613281 12.242188 57.613281 L 50.40625 19.441406 Z M 26.042969 29.960938 L 28.386719 32.300781 L 31.175781 21.882812 L 20.757812 24.675781 L 23.097656 27.015625 L 7.863281 42.253906 C 7.683594 41.28125 7.570312 40.300781 7.523438 39.3125 C 7.480469 38.324219 7.507812 37.339844 7.601562 36.355469 C 7.699219 35.367188 7.863281 34.394531 8.09375 33.433594 C 8.328125 32.472656 8.625 31.53125 8.992188 30.613281 C 9.359375 29.691406 9.785156 28.804688 10.277344 27.945312 C 10.769531 27.085938 11.316406 26.265625 11.925781 25.484375 C 12.53125 24.703125 13.191406 23.964844 13.902344 23.277344 C 14.609375 22.589844 15.367188 21.953125 16.167969 21.371094 C 16.96875 20.789062 17.804688 20.265625 18.679688 19.804688 C 19.550781 19.339844 20.453125 18.9375 21.386719 18.601562 C 22.316406 18.265625 23.265625 17.996094 24.234375 17.792969 C 25.203125 17.589844 26.179688 17.457031 27.167969 17.394531 C 28.15625 17.328125 29.140625 17.332031 30.128906 17.410156 C 31.117188 17.484375 32.09375 17.628906 33.058594 17.839844 C 34.023438 18.050781 34.972656 18.332031 35.898438 18.679688 C 36.824219 19.023438 37.722656 19.433594 38.59375 19.90625 L 41.636719 16.863281 C 40.472656 16.152344 39.257812 15.542969 37.996094 15.03125 C 36.730469 14.519531 35.433594 14.113281 34.105469 13.8125 C 32.773438 13.511719 31.429688 13.320312 30.066406 13.238281 C 28.707031 13.15625 27.347656 13.183594 25.992188 13.320312 C 24.636719 13.460938 23.300781 13.707031 21.984375 14.0625 C 20.664062 14.414062 19.386719 14.875 18.144531 15.4375 C 16.902344 16 15.714844 16.65625 14.578125 17.414062 C 13.445312 18.167969 12.378906 19.011719 11.378906 19.9375 C 10.378906 20.867188 9.460938 21.871094 8.625 22.949219 C 7.792969 24.023438 7.046875 25.160156 6.394531 26.359375 C 5.746094 27.558594 5.195312 28.800781 4.746094 30.085938 C 4.296875 31.375 3.953125 32.691406 3.714844 34.03125 C 3.480469 35.375 3.355469 36.730469 3.335938 38.09375 C 3.320312 39.457031 3.414062 40.8125 3.617188 42.160156 C 3.820312 43.507812 4.132812 44.832031 4.550781 46.128906 C 4.96875 47.425781 5.488281 48.679688 6.109375 49.894531 Z M 46.996094 28.324219 C 51.335938 36.296875 50.136719 46.511719 43.398438 53.25 C 42.1875 54.460938 40.851562 55.503906 39.386719 56.386719 C 37.921875 57.269531 36.375 57.964844 34.742188 58.46875 C 33.109375 58.972656 31.4375 59.273438 29.730469 59.371094 C 28.027344 59.46875 26.332031 59.359375 24.652344 59.042969 L 30.15625 53.539062 L 32.5 55.882812 L 35.292969 45.460938 L 24.871094 48.253906 L 27.214844 50.597656 L 17.015625 60.796875 C 18.226562 61.421875 19.484375 61.941406 20.78125 62.359375 C 22.078125 62.777344 23.402344 63.085938 24.75 63.289062 C 26.097656 63.492188 27.453125 63.585938 28.816406 63.570312 C 30.179688 63.554688 31.53125 63.429688 32.875 63.191406 C 34.21875 62.957031 35.535156 62.613281 36.820312 62.164062 C 38.109375 61.714844 39.351562 61.164062 40.546875 60.511719 C 41.746094 59.863281 42.882812 59.117188 43.960938 58.28125 C 45.039062 57.445312 46.042969 56.53125 46.96875 55.53125 C 47.898438 54.53125 48.738281 53.464844 49.496094 52.332031 C 50.25 51.195312 50.910156 50.007812 51.472656 48.765625 C 52.035156 47.523438 52.492188 46.242188 52.847656 44.925781 C 53.203125 43.609375 53.449219 42.273438 53.585938 40.917969 C 53.726562 39.5625 53.753906 38.203125 53.671875 36.84375 C 53.585938 35.480469 53.394531 34.136719 53.09375 32.804688 C 52.792969 31.476562 52.386719 30.179688 51.875 28.914062 C 51.367188 27.652344 50.753906 26.4375 50.046875 25.273438 Z M 46.996094 28.324219 " fill-opacity="1" fill-rule="nonzero"/></g><g fill="#484848" fill-opacity="1"><g transform="translate(63.465019, 52.413424)"><g><path d="M 7.320312 -4.0625 L 7.320312 -26.785156 L 2.945312 -26.785156 L 2.945312 0 L 16.742188 0 L 16.742188 -4.0625 Z M 7.320312 -4.0625 "/></g></g></g><g fill="#484848" fill-opacity="1"><g transform="translate(81.819097, 52.413424)"><g><path d="M 19.195312 0 L 23.929688 0 L 14.242188 -26.785156 L 9.375 -26.785156 L -0.3125 0 L 4.417969 0 L 6.339844 -5.667969 L 17.277344 -5.667969 Z M 7.632812 -9.507812 L 11.828125 -22.007812 L 16.027344 -9.507812 Z M 7.632812 -9.507812 "/></g></g></g><g fill="#484848" fill-opacity="1"><g transform="translate(106.823712, 52.413424)"><g><path d="M 13.4375 -26.785156 L 2.945312 -26.785156 L 2.945312 0 L 7.320312 0 L 7.320312 -11.382812 L 13.4375 -11.382812 C 17.765625 -11.382812 21.160156 -14.6875 21.160156 -19.015625 C 21.160156 -23.304688 17.765625 -26.785156 13.4375 -26.785156 Z M 12.8125 -15.179688 L 7.320312 -15.179688 L 7.320312 -22.8125 L 12.8125 -22.8125 C 15.132812 -22.8125 16.875 -21.292969 16.875 -18.972656 C 16.875 -16.605469 15.132812 -15.179688 12.8125 -15.179688 Z M 12.8125 -15.179688 "/></g></g></g><g fill="#484848" fill-opacity="1"><g transform="translate(129.819775, 52.413424)"><g><path d="M 18.617188 -26.785156 L 0.0898438 -26.785156 L 0.0898438 -22.722656 L 7.1875 -22.722656 L 7.1875 0 L 11.515625 0 L 11.515625 -22.722656 L 18.617188 -22.722656 Z M 18.617188 -26.785156 "/></g></g></g><g fill="#484848" fill-opacity="1"><g transform="translate(149.9146, 52.413424)"><g><path d="M 3.167969 0 L 7.542969 0 L 7.542969 -26.785156 L 3.167969 -26.785156 Z M 3.167969 0 "/></g></g></g><g fill="#484848" fill-opacity="1"><g transform="translate(161.975217, 52.413424)"><g><path d="M 10.402344 0.355469 C 15.222656 0.355469 19.152344 -2.5 19.152344 -7.320312 C 19.152344 -16.828125 6.472656 -14.507812 6.472656 -20 C 6.472656 -22.097656 8.125 -23.078125 10.089844 -23.078125 C 11.875 -23.078125 13.480469 -22.277344 14.6875 -20.757812 L 17.765625 -23.570312 C 16.070312 -25.667969 13.257812 -27.140625 10.089844 -27.140625 C 5.894531 -27.140625 2.097656 -24.507812 2.097656 -19.6875 C 2.097656 -10.804688 14.777344 -12.992188 14.777344 -7.320312 C 14.777344 -5.132812 12.945312 -3.839844 10.445312 -3.839844 C 7.722656 -3.839844 5.667969 -5.355469 4.730469 -7.632812 L 0.980469 -5.355469 C 2.542969 -2.007812 6.117188 0.355469 10.402344 0.355469 Z M 10.402344 0.355469 "/></g></g></g></svg>