<?xml version="1.0" encoding="UTF-8"?><svg id="Layer_1" xmlns="http://www.w3.org/2000/svg" width="886.6" height="869.5" viewBox="0 0 886.6 869.5"><defs><style>.cls-1{fill:#26619c;}.cls-1,.cls-2,.cls-3,.cls-4,.cls-5,.cls-6{stroke-width:0px;}.cls-2{fill:#00a2c4;}.cls-3{fill:#00c3d3;}.cls-4{fill:#00fff3;}.cls-5{fill:#00e2e3;}.cls-6{fill:#0082b4;}</style></defs><path class="cls-6" d="M571.7,517.9c2.4,1.4,3.3,4.6,1.8,7l-91.9,155.5-40.3,68.2c-1.4,2.4-4.5,3.2-6.9,1.8l-264.8-148.7c-2.5-1.4-3.3-4.5-1.9-7l74-126.6,59.3-101.5c1.4-2.4,4.5-3.2,7-1.8l263.7,153.2Z"/><path class="cls-4" d="M708.5,606.2l-228.6,127c-4.5,2.5-9.5-2.6-6.9-7l112.2-189.8v.3c.1,0,2.2-3.7,2.2-3.7,1.4-2.5,4.5-3.3,7-1.9l7.4,4.3,23.9,13.9,82.9,48.1c3.4,2,3.4,6.9,0,8.8Z"/><path class="cls-2" d="M285.4,351.6c2.4,1.4,3.3,4.5,1.8,7l-52.6,89.9-63.1,107.9c-2.6,4.5-9.5,2.6-9.5-2.6v-265c0-3.9,4.3-6.4,7.6-4.4l6.7,3.9,108.9,63.3Z"/><path class="cls-1" d="M567.7,486.8c1.6,4.5-3.3,8.5-7.4,6.1l-128.8-74.8-253.6-147.4c-3.4-2-3.4-6.9,0-8.8l254-142.7c2.8-1.5,6.2-.2,7.3,2.7l80.7,229.4,47.7,135.5Z"/><path class="cls-3" d="M718.9,270.5l-124.6,218.3c-2.2,3.8-7.8,3.3-9.2-.8l-52.3-148.7-72.3-205.3c-1.5-4.4,3.1-8.4,7.2-6.2l249.2,135.7c2.5,1.4,3.4,4.5,2,7Z"/><path class="cls-5" d="M724.5,312.1v267.2c0,3.9-4.3,6.4-7.6,4.4l-114.5-66.5c-2.4-1.4-3.2-4.5-1.9-6.9l114.5-200.7c2.6-4.5,9.5-2.7,9.5,2.5Z"/></svg>